<!DOCTYPE svg PUBLIC "-//W3C//DTD SVG 1.1//EN" "http://www.w3.org/Graphics/SVG/1.1/DTD/svg11.dtd">
<!-- Uploaded to: SVG Repo, www.svgrepo.com, Transformed by: SVG Repo Mixer Tools -->
<svg fill="#ffffff" width="800px" height="800px" viewBox="0 0 32 32" xmlns="http://www.w3.org/2000/svg">
<g id="SVGRepo_bgCarrier" stroke-width="0"/>
<g id="SVGRepo_tracerCarrier" stroke-linecap="round" stroke-linejoin="round"/>
<g id="SVGRepo_iconCarrier"> <title/> <g data-name="Layer 2" id="Layer_2"> <path d="M8,27a.76.76,0,0,1-.75.75,1.51,1.51,0,0,0-1.5,1.5.75.75,0,0,1-1.5,0,1.5,1.5,0,0,0-1.5-1.5.75.75,0,0,1,0-1.5,1.5,1.5,0,0,0,1.5-1.5.75.75,0,0,1,1.5,0,1.51,1.51,0,0,0,1.5,1.5A.76.76,0,0,1,8,27Z"/> <path d="M30,6a1,1,0,0,1-1,1,2,2,0,0,0-2,2,1,1,0,0,1-2,0,2,2,0,0,0-2-2,1,1,0,0,1,0-2,2,2,0,0,0,2-2,1,1,0,0,1,2,0,2,2,0,0,0,2,2A1,1,0,0,1,30,6Z"/> <path d="M27.3,14.75a14,14,0,0,0-22.6,0,2.94,2.94,0,0,0,0,3.5,14,14,0,0,0,22.6,0,2.93,2.93,0,0,0,0-3.5Zm-21,2.33a1,1,0,0,1,0-1.16,12,12,0,0,1,6.46-4.47,6,6,0,0,0,0,10.1A12,12,0,0,1,6.32,17.08Zm19.37,0a12,12,0,0,1-6.45,4.47,6,6,0,0,0,0-10.1,12,12,0,0,1,6.45,4.47A1,1,0,0,1,25.69,17.08Z"/> </g> </g>
</svg>