<!DOCTYPE svg PUBLIC "-//W3C//DTD SVG 1.1//EN" "http://www.w3.org/Graphics/SVG/1.1/DTD/svg11.dtd">
<!-- Uploaded to: SVG Repo, www.svgrepo.com, Transformed by: SVG Repo Mixer Tools -->
<svg fill="#ffffff" width="800px" height="800px" viewBox="0 0 24 24" id="up-direction-2" data-name="Flat Color" xmlns="http://www.w3.org/2000/svg" class="icon flat-color" stroke="#ffffff">
<g id="SVGRepo_bgCarrier" stroke-width="0"/>
<g id="SVGRepo_tracerCarrier" stroke-linecap="round" stroke-linejoin="round"/>
<g id="SVGRepo_iconCarrier">
<path id="primary" d="M21.71,14.17,13.42,5.88a2,2,0,0,0-2.84,0l-8.29,8.3a1,1,0,0,0-.29.71,1,1,0,0,0,.29.7l2.83,2.82a1,1,0,0,0,.71.3,1,1,0,0,0,.71-.3L12,13l5.46,5.46a1,1,0,0,0,1.42,0l2.83-2.83A1,1,0,0,0,21.71,14.17Z" style="fill: #ffffff;"/>
</g>
</svg>