{
  "accessors": [
    {
      "bufferView": 2,
      "componentType": 5126,
      "count": 65534,
      "max": [
        1.0,
        1.0,
        0.18614870309829712
      ],
      "min": [
        -1.00078284740448,
        -1.0001240968704224,
        -0.24762706458568573
      ],
      "type": "VEC3"
    },
    {
      "bufferView": 2,
      "byteOffset": 786408,
      "componentType": 5126,
      "count": 65534,
      "max": [
        0.9999213814735413,
        0.9999985694885254,
        1.0
      ],
      "min": [
        -0.9999217391014099,
        -0.9999985694885254,
        -1.0
      ],
      "type": "VEC3"
    },
    {
      "bufferView": 1,
      "componentType": 5126,
      "count": 65534,
      "max": [
        1.0,
        1.0
      ],
      "min": [
        0.0,
        0.0
      ],
      "type": "VEC2"
    },
    {
      "bufferView": 0,
      "componentType": 5125,
      "count": 84156,
      "type": "SCALAR"
    },
    {
      "bufferView": 2,
      "byteOffset": 1572816,
      "componentType": 5126,
      "count": 65534,
      "max": [
        1.0,
        1.0,
        0.19477131962776184
      ],
      "min": [
        -1.00078284740448,
        -1.0001240968704224,
        -0.24762706458568573
      ],
      "type": "VEC3"
    },
    {
      "bufferView": 2,
      "byteOffset": 2359224,
      "componentType": 5126,
      "count": 65534,
      "max": [
        0.9616625905036926,
        0.9714926481246948,
        1.0
      ],
      "min": [
        -0.9604012370109558,
        -0.9860458970069885,
        -1.0
      ],
      "type": "VEC3"
    },
    {
      "bufferView": 1,
      "byteOffset": 524272,
      "componentType": 5126,
      "count": 65534,
      "max": [
        1.0,
        1.0
      ],
      "min": [
        0.0,
        0.0
      ],
      "type": "VEC2"
    },
    {
      "bufferView": 0,
      "byteOffset": 336624,
      "componentType": 5125,
      "count": 67563,
      "type": "SCALAR"
    },
    {
      "bufferView": 2,
      "byteOffset": 3145632,
      "componentType": 5126,
      "count": 65532,
      "max": [
        1.0,
        1.0,
        0.19438140094280243
      ],
      "min": [
        -0.9967036247253418,
        -0.996211051940918,
        -0.20067967474460602
      ],
      "type": "VEC3"
    },
    {
      "bufferView": 2,
      "byteOffset": 3932016,
      "componentType": 5126,
      "count": 65532,
      "max": [
        0.994749128818512,
        0.9977849721908569,
        1.0
      ],
      "min": [
        -0.9869573712348938,
        -0.9928150773048401,
        -0.9425861239433289
      ],
      "type": "VEC3"
    },
    {
      "bufferView": 1,
      "byteOffset": 1048544,
      "componentType": 5126,
      "count": 65532,
      "max": [
        1.0,
        1.0
      ],
      "min": [
        0.0019012520788237453,
        0.0019180153030902147
      ],
      "type": "VEC2"
    },
    {
      "bufferView": 0,
      "byteOffset": 606876,
      "componentType": 5125,
      "count": 65619,
      "type": "SCALAR"
    },
    {
      "bufferView": 2,
      "byteOffset": 4718400,
      "componentType": 5126,
      "count": 65532,
      "max": [
        1.0,
        1.0,
        0.19477131962776184
      ],
      "min": [
        -1.0,
        -1.0,
        -0.24762704968452454
      ],
      "type": "VEC3"
    },
    {
      "bufferView": 2,
      "byteOffset": 5504784,
      "componentType": 5126,
      "count": 65532,
      "max": [
        0.9761162996292114,
        0.9930875301361084,
        1.0
      ],
      "min": [
        -0.9963223338127136,
        -0.978163480758667,
        -1.0
      ],
      "type": "VEC3"
    },
    {
      "bufferView": 1,
      "byteOffset": 1572800,
      "componentType": 5126,
      "count": 65532,
      "max": [
        1.0,
        1.0
      ],
      "min": [
        0.0,
        0.0
      ],
      "type": "VEC2"
    },
    {
      "bufferView": 0,
      "byteOffset": 869352,
      "componentType": 5125,
      "count": 66165,
      "type": "SCALAR"
    },
    {
      "bufferView": 2,
      "byteOffset": 6291168,
      "componentType": 5126,
      "count": 31862,
      "max": [
        0.9992156028747559,
        0.999874472618103,
        -0.24762630462646484
      ],
      "min": [
        -1.00078284740448,
        -0.9963350892066956,
        -0.24762706458568573
      ],
      "type": "VEC3"
    },
    {
      "bufferView": 2,
      "byteOffset": 6673512,
      "componentType": 5126,
      "count": 31862,
      "max": [
        0.00013520821812562644,
        5.188237992115319e-05,
        1.0
      ],
      "min": [
        -7.887679385021329e-05,
        -0.00010071026918012649,
        -1.0
      ],
      "type": "VEC3"
    },
    {
      "bufferView": 1,
      "byteOffset": 2097056,
      "componentType": 5126,
      "count": 31862,
      "max": [
        1.0,
        1.0
      ],
      "min": [
        0.0,
        0.001953125
      ],
      "type": "VEC2"
    },
    {
      "bufferView": 0,
      "byteOffset": 1134012,
      "componentType": 5125,
      "count": 32037,
      "type": "SCALAR"
    }
  ],
  "asset": {
    "extras": {
      "author": "TastefullBrick (https://sketchfab.com/tastefullbrick)",
      "license": "CC-BY-NC-4.0 (http://creativecommons.org/licenses/by-nc/4.0/)",
      "source": "https://sketchfab.com/3d-models/low-poly-mountain-2-a839a7c4029b43d59a4eaeab3f5a7e1d",
      "title": "Low Poly Mountain 2"
    },
    "generator": "Sketchfab-12.66.0",
    "version": "2.0"
  },
  "bufferViews": [
    {
      "buffer": 0,
      "byteLength": 1262160,
      "name": "floatBufferViews",
      "target": 34963
    },
    {
      "buffer": 0,
      "byteLength": 2351952,
      "byteOffset": 1262160,
      "byteStride": 8,
      "name": "floatBufferViews",
      "target": 34962
    },
    {
      "buffer": 0,
      "byteLength": 7055856,
      "byteOffset": 3614112,
      "byteStride": 12,
      "name": "floatBufferViews",
      "target": 34962
    }
  ],
  "buffers": [
    {
      "byteLength": 10669968,
      "uri": "scene.bin"
    }
  ],
  "images": [
    {
      "uri": "textures/Material.003_baseColor.png"
    }
  ],
  "materials": [
    {
      "doubleSided": true,
      "name": "Material.003",
      "pbrMetallicRoughness": {
        "baseColorTexture": {
          "index": 0
        },
        "metallicFactor": 0.0,
        "roughnessFactor": 0.8211145618000169
      }
    }
  ],
  "meshes": [
    {
      "name": "Plane.001_Material.003_0",
      "primitives": [
        {
          "attributes": {
            "NORMAL": 1,
            "POSITION": 0,
            "TEXCOORD_0": 2
          },
          "indices": 3,
          "material": 0,
          "mode": 4
        }
      ]
    },
    {
      "name": "Plane.001_Material.003_0",
      "primitives": [
        {
          "attributes": {
            "NORMAL": 5,
            "POSITION": 4,
            "TEXCOORD_0": 6
          },
          "indices": 7,
          "material": 0,
          "mode": 4
        }
      ]
    },
    {
      "name": "Plane.001_Material.003_0",
      "primitives": [
        {
          "attributes": {
            "NORMAL": 9,
            "POSITION": 8,
            "TEXCOORD_0": 10
          },
          "indices": 11,
          "material": 0,
          "mode": 4
        }
      ]
    },
    {
      "name": "Plane.001_Material.003_0",
      "primitives": [
        {
          "attributes": {
            "NORMAL": 13,
            "POSITION": 12,
            "TEXCOORD_0": 14
          },
          "indices": 15,
          "material": 0,
          "mode": 4
        }
      ]
    },
    {
      "name": "Plane.001_Material.003_0",
      "primitives": [
        {
          "attributes": {
            "NORMAL": 17,
            "POSITION": 16,
            "TEXCOORD_0": 18
          },
          "indices": 19,
          "material": 0,
          "mode": 4
        }
      ]
    }
  ],
  "nodes": [
    {
      "children": [
        1
      ],
      "matrix": [
        1.0,
        0.0,
        0.0,
        0.0,
        0.0,
        2.220446049250313e-16,
        -1.0,
        0.0,
        0.0,
        1.0,
        2.220446049250313e-16,
        0.0,
        0.0,
        0.0,
        0.0,
        1.0
      ],
      "name": "Sketchfab_model"
    },
    {
      "children": [
        2
      ],
      "matrix": [
        0.009999999776482582,
        0.0,
        0.0,
        0.0,
        0.0,
        0.0,
        0.009999999776482582,
        0.0,
        0.0,
        -0.009999999776482582,
        0.0,
        0.0,
        0.0,
        0.0,
        0.0,
        1.0
      ],
      "name": "LowPolyMountain2.fbx"
    },
    {
      "children": [
        3
      ],
      "name": "RootNode"
    },
    {
      "children": [
        4,
        5,
        6,
        7,
        8
      ],
      "matrix": [
        1265.1585693359375,
        0.0,
        0.0,
        0.0,
        0.0,
        -0.0002061204936546084,
        -1265.1585693359207,
        0.0,
        0.0,
        1265.1585693359207,
        -0.0002061204936546084,
        0.0,
        433.364013671875,
        107.13911437988281,
        0.0,
        1.0
      ],
      "name": "Plane.001"
    },
    {
      "mesh": 0,
      "name": "Plane.001_Material.003_0"
    },
    {
      "mesh": 1,
      "name": "Plane.001_Material.003_0"
    },
    {
      "mesh": 2,
      "name": "Plane.001_Material.003_0"
    },
    {
      "mesh": 3,
      "name": "Plane.001_Material.003_0"
    },
    {
      "mesh": 4,
      "name": "Plane.001_Material.003_0"
    }
  ],
  "samplers": [
    {
      "magFilter": 9729,
      "minFilter": 9987,
      "wrapS": 10497,
      "wrapT": 10497
    }
  ],
  "scene": 0,
  "scenes": [
    {
      "name": "Sketchfab_Scene",
      "nodes": [
        0
      ]
    }
  ],
  "textures": [
    {
      "sampler": 0,
      "source": 0
    }
  ]
}
